<?xml version="1.0" standalone="no"?>
<!DOCTYPE svg PUBLIC "-//W3C//DTD SVG 20010904//EN"
 "http://www.w3.org/TR/2001/REC-SVG-20010904/DTD/svg10.dtd">
<svg version="1.0" xmlns="http://www.w3.org/2000/svg"
 width="512.000000pt" height="512.000000pt" viewBox="0 0 512.000000 512.000000"
 preserveAspectRatio="xMidYMid meet">

<g transform="translate(0.000000,512.000000) scale(0.100000,-0.100000)"
fill="#000000" stroke="none">
<path d="M572 4419 c-114 -22 -217 -101 -269 -207 l-28 -57 0 -525 0 -525 27
-57 c37 -79 98 -142 177 -181 l66 -32 525 0 525 0 57 28 c108 53 185 156 208
276 14 76 13 915 -1 983 -33 153 -145 265 -297 297 -63 13 -923 13 -990 0z
m958 -329 c19 -19 20 -33 20 -458 0 -380 -2 -440 -16 -460 l-15 -22 -453 0
c-338 0 -455 3 -464 12 -9 9 -12 126 -12 464 l0 453 22 15 c20 14 80 16 460
16 425 0 439 -1 458 -20z"/>
<path d="M2480 4188 c-48 -33 -72 -70 -77 -120 -7 -58 23 -118 74 -149 l38
-24 1100 -3 1100 -2 45 22 c66 34 93 79 88 149 -5 65 -32 109 -82 133 -31 14
-141 16 -1144 16 l-1109 0 -33 -22z"/>
<path d="M2495 3346 c-67 -29 -105 -106 -91 -181 9 -47 59 -102 104 -115 25
-8 257 -10 714 -8 665 3 677 3 704 24 53 39 69 71 69 134 0 63 -16 95 -69 134
-27 21 -38 21 -714 23 -556 2 -693 0 -717 -11z"/>
<path d="M528 2276 c-98 -35 -175 -102 -225 -198 l-28 -53 0 -530 0 -530 27
-56 c53 -107 158 -186 277 -209 75 -14 914 -13 983 1 115 24 211 96 262 196
44 88 48 136 44 633 -3 414 -5 470 -21 510 -44 112 -138 204 -242 235 -67 21
-1020 21 -1077 1z m1006 -328 c14 -20 16 -80 16 -460 0 -425 -1 -439 -20 -458
-19 -19 -33 -20 -458 -20 -380 0 -440 2 -460 16 l-22 15 0 453 c0 338 3 455
12 464 9 9 126 12 464 12 l453 0 15 -22z"/>
<path d="M2495 2066 c-67 -29 -105 -106 -91 -181 9 -47 59 -102 104 -115 25
-8 384 -10 1139 -8 1100 3 1102 3 1130 24 98 73 98 195 0 268 -28 21 -30 21
-1140 23 -909 2 -1118 0 -1142 -11z"/>
<path d="M2507 1216 c-49 -18 -64 -32 -89 -80 -37 -73 -13 -153 62 -203 l33
-23 687 0 687 0 33 22 c48 33 72 70 77 120 7 58 -23 118 -74 149 l-38 24 -670
2 c-543 2 -677 0 -708 -11z"/>
</g>
</svg>
