<?xml version="1.0" standalone="no"?>
<!DOCTYPE svg PUBLIC "-//W3C//DTD SVG 20010904//EN"
 "http://www.w3.org/TR/2001/REC-SVG-20010904/DTD/svg10.dtd">
<svg version="1.0" xmlns="http://www.w3.org/2000/svg"
 width="300.000000pt" height="300.000000pt" viewBox="0 0 300.000000 300.000000"
 preserveAspectRatio="xMidYMid meet">
<metadata>
Created by potrace 1.10, written by Peter Selinger 2001-2011
</metadata>
<g transform="translate(0.000000,300.000000) scale(0.100000,-0.100000)"
fill="#000000" stroke="none">
<path d="M285 2573 c-47 -24 -86 -64 -106 -108 -17 -36 -19 -69 -19 -343 0
-334 1 -343 67 -403 62 -58 66 -59 393 -59 327 0 345 3 403 58 66 62 67 70 67
407 0 337 -1 345 -67 407 -58 56 -75 58 -405 58 -256 -1 -308 -3 -333 -17z
m658 -37 c39 -16 82 -61 96 -99 7 -18 11 -137 11 -314 0 -324 -4 -344 -77
-393 l-36 -25 -300 -3 c-288 -3 -301 -2 -343 19 -30 14 -52 35 -69 63 l-25 43
0 299 0 300 27 42 c51 79 67 82 396 82 222 0 295 -3 320 -14z"/>
<path d="M354 2439 c-50 -25 -54 -49 -54 -309 0 -264 6 -296 56 -319 16 -7
108 -11 269 -11 161 0 253 4 269 11 50 23 56 56 56 314 0 258 -6 291 -56 314
-32 14 -510 14 -540 0z m544 -41 c17 -17 17 -529 0 -546 -17 -17 -529 -17
-546 0 -17 17 -17 529 0 546 17 17 529 17 546 0z"/>
<path d="M1439 2441 c-21 -22 -29 -39 -29 -66 0 -27 8 -44 29 -66 l29 -29 657
0 657 0 29 29 c40 41 40 91 0 132 l-29 29 -657 0 -657 0 -29 -29z m1347 -35
c18 -25 18 -37 0 -62 -14 -18 -34 -19 -643 -22 -345 -1 -638 0 -650 3 -47 11
-53 77 -10 95 12 5 307 8 655 7 614 -2 634 -3 648 -21z"/>
<path d="M1439 1941 c-21 -22 -29 -39 -29 -66 0 -27 8 -44 29 -66 l29 -29 407
0 407 0 29 29 c40 41 40 91 0 132 l-29 29 -407 0 -407 0 -29 -29z m831 -24
c32 -16 37 -50 11 -76 -20 -20 -31 -21 -406 -21 -372 0 -386 1 -405 20 -11 11
-20 26 -20 33 0 17 21 43 40 50 8 3 182 6 385 6 279 1 376 -2 395 -12z"/>
<path d="M285 1323 c-44 -23 -84 -63 -106 -105 -17 -34 -19 -62 -19 -338 0
-327 3 -345 58 -403 62 -66 70 -67 402 -67 327 0 345 2 404 58 63 59 66 76 66
410 0 334 -1 343 -67 403 -62 59 -65 59 -400 59 -261 -1 -313 -3 -338 -17z
m652 -34 c15 -5 41 -22 56 -37 56 -53 57 -57 57 -373 0 -272 -1 -296 -20 -333
-11 -23 -36 -52 -57 -66 l-36 -25 -300 -3 c-288 -3 -301 -2 -343 19 -30 14
-52 35 -69 63 l-25 43 0 300 0 300 30 45 c50 75 61 77 392 77 179 1 297 -3
315 -10z"/>
<path d="M354 1189 c-50 -25 -54 -49 -54 -309 0 -271 6 -300 62 -319 19 -7
127 -11 274 -11 l244 0 32 29 33 29 3 251 c3 274 -2 306 -54 330 -32 14 -510
14 -540 0z m544 -41 c17 -17 17 -529 0 -546 -17 -17 -529 -17 -546 0 -17 17
-17 529 0 546 17 17 529 17 546 0z"/>
<path d="M1439 1191 c-21 -22 -29 -39 -29 -66 0 -27 8 -44 29 -66 l29 -29 657
0 657 0 29 29 c40 41 40 91 0 132 l-29 29 -657 0 -657 0 -29 -29z m1347 -35
c19 -27 18 -42 -6 -66 -20 -20 -33 -20 -653 -20 -563 0 -635 2 -655 16 -31 21
-26 64 8 81 20 10 162 12 658 10 614 -2 634 -3 648 -21z"/>
<path d="M1439 691 c-42 -42 -41 -99 2 -135 l31 -26 405 0 405 0 29 29 c40 41
40 91 0 132 l-29 29 -407 0 -407 0 -29 -29z m847 -35 c18 -25 18 -37 0 -62
-14 -18 -31 -19 -383 -22 -202 -2 -383 0 -400 3 -56 10 -69 75 -20 95 12 5
194 8 405 7 367 -2 384 -3 398 -21z"/>
</g>
</svg>
