<svg width="27" height="27" viewBox="0 0 27 27" fill="none" xmlns="http://www.w3.org/2000/svg">
<path d="M2.25012 13.5004C2.25012 12.8783 2.753 12.3754 3.37512 12.3754L20.9094 12.3754L14.9548 6.42086C14.5149 5.98098 14.5149 5.26991 14.9548 4.83004C15.1742 4.61067 15.4621 4.50045 15.7501 4.50045C16.0381 4.50045 16.3261 4.61067 16.5455 4.83004L24.4205 12.705C24.8603 13.1449 24.8603 13.856 24.4205 14.2959L16.5455 22.1709C16.1056 22.6107 15.3947 22.6107 14.9548 22.1709C14.5149 21.731 14.5149 21.0199 14.9548 20.58L20.9094 14.6254L3.37512 14.6254C2.753 14.6254 2.25012 14.1226 2.25012 13.5004Z" fill="#385CAD"/>
</svg>
