<svg width="27" height="28" viewBox="0 0 27 28" fill="none" xmlns="http://www.w3.org/2000/svg">
<path d="M19.125 3.50001C19.125 2.85484 18.621 2.33334 18 2.33334C17.379 2.33334 16.875 2.85484 16.875 3.50001H10.125C10.125 2.85484 9.621 2.33334 9 2.33334C8.379 2.33334 7.875 2.85484 7.875 3.50001C4.77338 3.50001 2.25 6.11684 2.25 9.33334V19.8333C2.25 23.0498 4.77338 25.6667 7.875 25.6667H19.125C22.2266 25.6667 24.75 23.0498 24.75 19.8333V9.33334C24.75 6.11684 22.2266 3.50001 19.125 3.50001ZM7.875 5.83334V7.00001C7.875 7.64518 8.379 8.16668 9 8.16668C9.621 8.16668 10.125 7.64518 10.125 7.00001V5.83334H16.875V7.00001C16.875 7.64518 17.379 8.16668 18 8.16668C18.621 8.16668 19.125 7.64518 19.125 7.00001V5.83334C20.9858 5.83334 22.5 7.40368 22.5 9.33334H4.5C4.5 7.40368 6.01425 5.83334 7.875 5.83334ZM19.125 23.3333H7.875C6.01425 23.3333 4.5 21.763 4.5 19.8333V11.6667H22.5V19.8333C22.5 21.763 20.9858 23.3333 19.125 23.3333ZM19.125 15.1667C19.125 15.8107 18.621 16.3333 18 16.3333C17.379 16.3333 16.875 15.8107 16.875 15.1667C16.875 14.5227 17.379 14 18 14C18.621 14 19.125 14.5227 19.125 15.1667ZM14.625 15.1667C14.625 15.8107 14.121 16.3333 13.5 16.3333C12.879 16.3333 12.375 15.8107 12.375 15.1667C12.375 14.5227 12.879 14 13.5 14C14.121 14 14.625 14.5227 14.625 15.1667ZM10.125 15.1667C10.125 15.8107 9.621 16.3333 9 16.3333C8.379 16.3333 7.875 15.8107 7.875 15.1667C7.875 14.5227 8.379 14 9 14C9.621 14 10.125 14.5227 10.125 15.1667ZM19.125 19.8333C19.125 20.4773 18.621 21 18 21C17.379 21 16.875 20.4773 16.875 19.8333C16.875 19.1893 17.379 18.6667 18 18.6667C18.621 18.6667 19.125 19.1893 19.125 19.8333ZM14.625 19.8333C14.625 20.4773 14.121 21 13.5 21C12.879 21 12.375 20.4773 12.375 19.8333C12.375 19.1893 12.879 18.6667 13.5 18.6667C14.121 18.6667 14.625 19.1893 14.625 19.8333ZM10.125 19.8333C10.125 20.4773 9.621 21 9 21C8.379 21 7.875 20.4773 7.875 19.8333C7.875 19.1893 8.379 18.6667 9 18.6667C9.621 18.6667 10.125 19.1893 10.125 19.8333Z" fill="black"/>
</svg>
