<svg width="27" height="27" viewBox="0 0 27 27" fill="none" xmlns="http://www.w3.org/2000/svg">
<path d="M23.5935 10.7116L22.9421 10.06C22.7284 9.84615 22.6103 9.56157 22.6103 9.25774V8.34165C22.6103 6.16306 20.8384 4.39183 18.6615 4.39183H17.7446C17.442 4.39183 17.1574 4.27491 16.9425 4.05885L16.2911 3.40842C14.7521 1.86789 12.2457 1.86789 10.7067 3.40842L10.0552 4.05885C9.84149 4.27378 9.55689 4.39183 9.25427 4.39183H8.33849C6.16049 4.39183 4.38972 6.16306 4.38972 8.34165V9.25774C4.38972 9.56157 4.27162 9.84502 4.05787 10.06L3.40762 10.7116C2.66062 11.4566 2.25 12.449 2.25 13.5034C2.25 14.5579 2.66064 15.5503 3.40652 16.2953L4.05787 16.9469C4.27162 17.1607 4.38972 17.4453 4.38972 17.7491V18.6652C4.38972 20.8438 6.16161 22.6151 8.33849 22.6151H9.25427C9.55689 22.6151 9.84153 22.732 10.0564 22.948L10.7078 23.5985C11.4773 24.3693 12.4886 24.753 13.5 24.753C14.5114 24.753 15.5227 24.3682 16.2922 23.5985L16.9436 22.948C17.1573 22.7331 17.442 22.6151 17.7446 22.6151H18.6615C20.8384 22.6151 22.6103 20.8438 22.6103 18.6652V17.7491C22.6103 17.4453 22.7284 17.1619 22.9421 16.9469L23.5935 16.2953C24.3394 15.5492 24.75 14.5579 24.75 13.5034C24.75 12.449 24.3394 11.4566 23.5935 10.7116ZM22.0027 14.7042L21.3503 15.3557C20.7113 15.9949 20.3603 16.8455 20.3603 17.7491V18.6652C20.3603 19.6015 19.5986 20.3645 18.6615 20.3645H17.7446C16.8401 20.3645 15.9907 20.7166 15.3517 21.3569L14.7004 22.0074C14.0378 22.669 12.96 22.669 12.2974 22.0074L11.6472 21.3569C11.0082 20.7178 10.1576 20.3645 9.25427 20.3645H8.33849C7.40136 20.3645 6.63973 19.6015 6.63973 18.6652V17.7491C6.63973 16.8455 6.28872 15.9949 5.64972 15.3557L4.99727 14.7042C4.67664 14.3834 4.5 13.9569 4.5 13.5034C4.5 13.0499 4.67662 12.6234 4.99837 12.3027L5.64972 11.6512C6.28872 11.012 6.63973 10.1614 6.63973 9.25774V8.34165C6.63973 7.4054 7.40249 6.64243 8.33849 6.64243H9.25427C10.1588 6.64243 11.0082 6.29026 11.6472 5.64996L12.2985 4.99953C12.9611 4.33786 14.0389 4.33786 14.7015 4.99953L15.3517 5.64996C15.9907 6.28913 16.8413 6.64243 17.7446 6.64243H18.6615C19.5986 6.64243 20.3603 7.4054 20.3603 8.34165V9.25774C20.3603 10.1614 20.7113 11.012 21.3503 11.6512L22.0027 12.3027C22.3234 12.6234 22.5 13.0499 22.5 13.5034C22.5 13.9569 22.3234 14.3834 22.0027 14.7042ZM17.6703 9.33192C18.1102 9.77191 18.1102 10.4832 17.6703 10.9232L10.9203 17.675C10.701 17.8944 10.413 18.0046 10.125 18.0046C9.837 18.0046 9.54903 17.8944 9.32966 17.675C8.88978 17.235 8.88978 16.5237 9.32966 16.0837L16.0797 9.33192C16.5195 8.89192 17.2305 8.89192 17.6703 9.33192ZM18 16.3167C18 17.2484 17.244 18.0046 16.3125 18.0046C15.381 18.0046 14.625 17.2484 14.625 16.3167C14.625 15.3849 15.381 14.6287 16.3125 14.6287C17.244 14.6287 18 15.3849 18 16.3167ZM9 10.6902C9 9.75844 9.756 9.00224 10.6875 9.00224C11.619 9.00224 12.375 9.75844 12.375 10.6902C12.375 11.6219 11.619 12.3781 10.6875 12.3781C9.756 12.3781 9 11.6219 9 10.6902Z" fill="black"/>
</svg>
