<svg width="30" height="30" viewBox="0 0 30 30" fill="none" xmlns="http://www.w3.org/2000/svg">
<path d="M21.25 5H8.75C5.30375 5 2.5 7.80375 2.5 11.25V18.75C2.5 22.1962 5.30375 25 8.75 25H21.25C24.6963 25 27.5 22.1962 27.5 18.75V11.25C27.5 7.80375 24.6963 5 21.25 5ZM8.75 7.5H21.25C22.7225 7.5 23.9862 8.35997 24.6 9.59747L17.08 14.61C15.8163 15.4525 14.1838 15.4525 12.92 14.61L5.40001 9.59747C6.01376 8.35997 7.2775 7.5 8.75 7.5ZM21.25 22.5H8.75C6.6825 22.5 5 20.8175 5 18.75V12.3351L11.5325 16.6901C12.5863 17.3926 13.7925 17.7438 15 17.7438C16.2063 17.7438 17.4138 17.3926 18.4663 16.6901L25 12.3351V18.75C25 20.8175 23.3175 22.5 21.25 22.5Z" fill="#C0C0C0"/>
</svg>
