<svg width="33" height="34" viewBox="0 0 33 34" fill="none" xmlns="http://www.w3.org/2000/svg">
<path d="M23.375 5.66666H9.625C5.83413 5.66666 2.75 8.84425 2.75 12.75V21.25C2.75 25.1557 5.83413 28.3333 9.625 28.3333H23.375C27.1659 28.3333 30.25 25.1557 30.25 21.25V12.75C30.25 8.84425 27.1659 5.66666 23.375 5.66666ZM9.625 8.5H23.375C24.9947 8.5 26.3849 9.47463 27.06 10.8771L18.788 16.558C17.3979 17.5128 15.6021 17.5128 14.212 16.558L5.94001 10.8771C6.61513 9.47463 8.00525 8.5 9.625 8.5ZM23.375 25.5H9.625C7.35075 25.5 5.5 23.5932 5.5 21.25V13.9797L12.6858 18.9154C13.8449 19.7116 15.1718 20.1097 16.5 20.1097C17.8269 20.1097 19.1551 19.7116 20.3129 18.9154L27.5 13.9797V21.25C27.5 23.5932 25.6493 25.5 23.375 25.5Z" fill="black"/>
</svg>
