<?xml version="1.0" standalone="no"?>
<!DOCTYPE svg PUBLIC "-//W3C//DTD SVG 20010904//EN"
 "http://www.w3.org/TR/2001/REC-SVG-20010904/DTD/svg10.dtd">
<svg version="1.0" xmlns="http://www.w3.org/2000/svg"
 width="300.000000pt" height="300.000000pt" viewBox="0 0 300.000000 300.000000"
 preserveAspectRatio="xMidYMid meet">
<metadata>
Created by potrace 1.10, written by Peter Selinger 2001-2011
</metadata>
<g transform="translate(0.000000,300.000000) scale(0.100000,-0.100000)"
fill="#000000" stroke="none">
<path d="M1424 2900 c-127 -19 -241 -78 -326 -169 -110 -116 -158 -237 -158
-397 l0 -81 -79 -5 c-133 -8 -234 -74 -284 -187 -19 -42 -23 -110 -59 -826
-21 -429 -37 -812 -35 -851 5 -86 39 -157 105 -215 88 -77 52 -74 912 -74 860
0 824 -3 912 74 66 58 100 129 105 215 2 39 -14 422 -35 851 -43 873 -37 827
-121 918 -55 59 -125 89 -223 95 l-78 5 0 78 c0 103 -14 168 -57 257 -101 213
-350 347 -579 312z m211 -55 c84 -22 171 -72 232 -132 99 -99 140 -196 152
-356 10 -134 16 -141 120 -150 89 -7 146 -33 194 -87 71 -77 66 -41 109 -900
21 -432 37 -810 35 -841 -8 -96 -66 -177 -157 -218 -44 -20 -62 -21 -814 -21
-561 0 -779 3 -808 12 -50 15 -123 79 -149 130 -11 22 -22 60 -25 86 -5 44 59
1474 71 1591 15 147 110 235 266 248 105 9 111 17 120 149 8 126 30 193 91
285 64 95 173 172 291 204 70 18 199 19 272 0z"/>
<path d="M1400 2746 c-77 -21 -139 -58 -196 -118 -81 -85 -107 -149 -112 -274
-6 -156 -41 -144 408 -144 449 0 414 -12 408 144 -5 125 -31 189 -113 275
-105 110 -256 155 -395 117z m201 -42 c176 -51 279 -203 279 -411 l0 -43 -380
0 -380 0 0 48 c0 199 100 349 269 403 70 23 142 24 212 3z"/>
<path d="M784 2081 c-33 -20 -68 -63 -77 -96 -3 -11 -11 -119 -16 -240 -6
-121 -13 -267 -16 -325 -23 -436 -45 -919 -45 -986 0 -89 16 -126 73 -168 28
-21 36 -21 775 -24 506 -2 759 0 784 8 46 13 95 68 104 117 4 21 -9 389 -30
818 -41 870 -37 838 -114 890 l-37 25 -685 0 c-655 0 -686 -1 -716 -19z m1416
-36 c58 -30 56 -10 97 -866 41 -876 42 -842 -21 -880 -30 -18 -65 -19 -776
-19 -711 0 -746 1 -776 19 -63 38 -62 4 -21 880 41 851 39 835 95 865 41 23
1359 23 1402 1z"/>
<path d="M1005 1928 c-15 -14 -28 -38 -31 -59 -5 -31 -1 -42 24 -70 23 -26 37
-33 67 -33 30 0 44 7 67 33 25 28 29 39 24 70 -7 46 -46 81 -91 81 -21 0 -44
-9 -60 -22z m105 -68 c0 -31 -17 -50 -45 -50 -29 0 -45 19 -45 52 0 21 6 31
23 37 33 12 67 -7 67 -39z"/>
<path d="M1875 1928 c-15 -14 -28 -38 -31 -59 -5 -31 -1 -42 24 -70 23 -26 37
-33 67 -33 30 0 44 7 67 33 25 28 29 39 24 70 -7 46 -46 81 -91 81 -21 0 -44
-9 -60 -22z m83 -34 c39 -27 23 -84 -23 -84 -12 0 -26 5 -33 12 -18 18 -15 65
6 77 23 14 24 14 50 -5z"/>
</g>
</svg>
