<svg width="27" height="27" viewBox="0 0 27 27" fill="none" xmlns="http://www.w3.org/2000/svg">
<path d="M13.5 14.625C16.9121 14.625 19.6875 11.8485 19.6875 8.4375C19.6875 5.0265 16.9121 2.25 13.5 2.25C10.0879 2.25 7.3125 5.0265 7.3125 8.4375C7.3125 11.8485 10.0879 14.625 13.5 14.625ZM13.5 4.5C15.6712 4.5 17.4375 6.26625 17.4375 8.4375C17.4375 10.6087 15.6712 12.375 13.5 12.375C11.3287 12.375 9.5625 10.6087 9.5625 8.4375C9.5625 6.26625 11.3287 4.5 13.5 4.5ZM22.5 20.2129V21.3503C22.5 22.4708 22.0905 23.5451 21.3468 24.3754C21.1241 24.624 20.817 24.75 20.5076 24.75C20.241 24.75 19.9721 24.6555 19.7573 24.4631C19.2938 24.0491 19.2555 23.337 19.6695 22.8746C20.043 22.4573 20.2489 21.915 20.2489 21.3503V20.2129C20.2489 18.639 19.206 17.2778 17.7142 16.9032C17.4982 16.8492 17.2676 16.8761 17.0831 16.9818C14.8545 18.2216 12.1342 18.2148 9.92697 16.9886C9.73235 16.8772 9.50288 16.8492 9.28688 16.9032C7.79176 17.2778 6.75 18.639 6.75 20.2129V21.3503C6.75 21.9162 6.95589 22.4573 7.32939 22.8746C7.74339 23.337 7.70401 24.0491 7.24164 24.4631C6.77814 24.8782 6.06715 24.8377 5.65315 24.3754C4.90953 23.5451 4.5 22.4708 4.5 21.3503V20.2129C4.5 17.6063 6.24266 15.3472 8.73791 14.7206C9.51078 14.5237 10.3478 14.6374 11.0318 15.0278C12.5494 15.8693 14.4405 15.8761 15.9795 15.0211C16.6534 14.6352 17.4904 14.5226 18.2644 14.7195C20.7574 15.3472 22.5 17.6052 22.5 20.2129Z" fill="black"/>
</svg>
