<svg width="29" height="29" viewBox="0 0 29 29" fill="none" xmlns="http://www.w3.org/2000/svg">
<path d="M26.0156 24.7334L20.3437 19.0615C21.7864 17.3324 22.6564 15.1102 22.6564 12.6875C22.6564 7.19079 18.1844 2.71875 12.6877 2.71875C7.19095 2.71875 2.7189 7.19079 2.7189 12.6875C2.7189 18.1842 7.19095 22.6562 12.6877 22.6562C15.1104 22.6562 17.3325 21.7863 19.0616 20.3436L24.7335 26.0155C24.9099 26.1919 25.1419 26.2812 25.3739 26.2812C25.6059 26.2812 25.8379 26.1931 26.0144 26.0155C26.3696 25.6614 26.3696 25.0874 26.0156 24.7334ZM4.5314 12.6875C4.5314 8.19008 8.19024 4.53125 12.6877 4.53125C17.1851 4.53125 20.8439 8.19008 20.8439 12.6875C20.8439 17.1849 17.1851 20.8438 12.6877 20.8438C8.19024 20.8438 4.5314 17.1849 4.5314 12.6875Z" fill="#BDBDBD"/>
</svg>
