<svg width="27" height="27" viewBox="0 0 27 27" fill="none" xmlns="http://www.w3.org/2000/svg">
<path d="M18.7954 10.4546C19.2353 10.8945 19.2353 11.6055 18.7954 12.0454L13.1704 17.6704C12.951 17.8898 12.663 18 12.375 18C12.087 18 11.799 17.8898 11.5796 17.6704L8.20462 14.2954C7.76475 13.8555 7.76475 13.1445 8.20462 12.7046C8.6445 12.2647 9.3555 12.2647 9.79538 12.7046L12.375 15.2843L17.2046 10.4546C17.6445 10.0147 18.3555 10.0147 18.7954 10.4546ZM24.75 13.5C24.75 19.7033 19.7033 24.75 13.5 24.75C7.29675 24.75 2.25 19.7033 2.25 13.5C2.25 7.29675 7.29675 2.25 13.5 2.25C19.7033 2.25 24.75 7.29675 24.75 13.5ZM22.5 13.5C22.5 8.53763 18.4624 4.5 13.5 4.5C8.53763 4.5 4.5 8.53763 4.5 13.5C4.5 18.4624 8.53763 22.5 13.5 22.5C18.4624 22.5 22.5 18.4624 22.5 13.5Z" fill="black"/>
</svg>
