<svg width="27" height="27" viewBox="0 0 27 27" fill="none" xmlns="http://www.w3.org/2000/svg">
<path d="M14.6262 23.625C14.6262 24.2471 14.1222 24.75 13.5012 24.75H9.00122C5.8996 24.75 3.37622 22.2266 3.37622 19.125V7.875C3.37622 4.77338 5.8996 2.25 9.00122 2.25H13.5012C14.1222 2.25 14.6262 2.75288 14.6262 3.375C14.6262 3.99713 14.1222 4.5 13.5012 4.5H9.00122C7.14047 4.5 5.62622 6.01425 5.62622 7.875V19.125C5.62622 20.9858 7.14047 22.5 9.00122 22.5H13.5012C14.1222 22.5 14.6262 23.0029 14.6262 23.625ZM23.5385 13.9297C23.6521 13.6552 23.6521 13.3448 23.5385 13.0703C23.4811 12.9319 23.399 12.8081 23.2943 12.7035L18.7955 8.20459C18.3556 7.76472 17.6446 7.76472 17.2047 8.20459C16.7648 8.64447 16.7648 9.35554 17.2047 9.79541L19.7843 12.375H11.2501C10.6291 12.375 10.1251 12.8779 10.1251 13.5C10.1251 14.1221 10.6291 14.625 11.2501 14.625H19.7843L17.2047 17.2046C16.7648 17.6445 16.7648 18.3555 17.2047 18.7954C17.4241 19.0148 17.7121 19.125 18.0001 19.125C18.2881 19.125 18.5761 19.0148 18.7955 18.7954L23.2943 14.2965C23.399 14.1919 23.4822 14.0681 23.5385 13.9297Z" fill="black"/>
</svg>
