<svg width="27" height="27" viewBox="0 0 27 27" fill="none" xmlns="http://www.w3.org/2000/svg">
<path d="M21.2823 5.04211L16.3334 2.84325C14.5592 2.05665 12.4398 2.05665 10.6657 2.84325L5.7179 5.04211C3.61077 5.97726 2.24951 7.96227 2.24951 10.097V16.9042C2.24951 19.0389 3.61073 21.0239 5.71673 21.9591L10.6668 24.159C11.5443 24.5484 12.5073 24.7443 13.4703 24.7477C13.4804 24.7477 13.4894 24.7533 13.4995 24.7533C13.5096 24.7533 13.5186 24.7477 13.5288 24.7477C14.4918 24.7432 15.4547 24.5484 16.3334 24.159L21.2823 21.9591C23.3894 21.0239 24.7506 19.0389 24.7506 16.9042V10.097C24.7495 7.96227 23.3883 5.97726 21.2823 5.04211ZM15.4199 4.90035L20.3688 7.09921C20.524 7.16785 20.6714 7.24658 20.812 7.32985L18.5597 8.33141L11.209 5.06464L11.5792 4.90035C12.7818 4.36694 14.2184 4.36694 15.4199 4.90035ZM8.43701 6.29684L15.7889 9.5636L14.7382 10.0307C13.999 10.3604 13 10.3604 12.2609 10.0307L6.18701 7.33095C6.32764 7.24655 6.47499 7.16895 6.63024 7.10031L8.43701 6.29684ZM6.63024 19.902C5.31624 19.3179 4.49951 18.1702 4.49951 16.9042V10.097C4.49951 9.75941 4.5614 9.43203 4.67165 9.12032L11.3474 12.0878C11.6714 12.2318 12.0179 12.341 12.3756 12.4152V22.3563C12.1045 22.2911 11.8356 22.2156 11.5814 22.1019L6.63024 19.902ZM22.4995 16.9042C22.4995 18.1702 21.6827 19.3191 20.3676 19.902L15.4199 22.1019C15.1645 22.2145 14.8956 22.2911 14.6245 22.3563V12.4152C14.9823 12.3398 15.3288 12.2318 15.6528 12.0878L22.3285 9.12032C22.4388 9.43203 22.5006 9.76054 22.5006 10.097L22.4995 16.9042Z" fill="black"/>
</svg>
