<svg width="27" height="27" viewBox="0 0 27 27" fill="none" xmlns="http://www.w3.org/2000/svg">
<path d="M19.7853 10.3196L19.125 9.65932L19.1261 7.15952C19.8956 6.11552 20.25 4.52925 20.25 3.375C20.25 2.754 19.7471 2.25 19.125 2.25H7.875C7.25287 2.25 6.75 2.754 6.75 3.375C6.75 4.52925 7.10437 6.11664 7.875 7.15952V9.65932L7.21465 10.3196C5.46415 12.0701 4.5 14.3978 4.5 16.875C4.5 17.1743 4.61816 17.46 4.82966 17.6704C5.04116 17.8808 5.32687 18 5.625 18H12.375V23.625C12.375 24.2471 12.8779 24.75 13.5 24.75C14.1221 24.75 14.625 24.2471 14.625 23.625V18H21.375C21.9971 18 22.5 17.4971 22.5 16.875C22.5 14.3978 21.5358 12.0701 19.7853 10.3196ZM6.83885 15.7489C7.0706 14.301 7.74903 12.9668 8.8054 11.9104L9.79534 10.9204C10.0068 10.7089 10.125 10.4231 10.125 10.125L10.1239 6.7489C10.1239 6.44965 10.0057 6.16387 9.79424 5.95349C9.52537 5.68462 9.28126 5.121 9.13726 4.5H17.8627C17.7176 5.121 17.4747 5.68459 17.2047 5.95459C16.9932 6.16609 16.875 6.45075 16.875 6.75V10.125C16.875 10.4243 16.9932 10.71 17.2047 10.9204L18.1946 11.9104C19.251 12.9668 19.9294 14.3021 20.1611 15.75L6.83885 15.7489Z" fill="black"/>
</svg>
