<svg width="27" height="27" viewBox="0 0 27 27" fill="none" xmlns="http://www.w3.org/2000/svg">
<path d="M19.125 4.5H7.875C4.77338 4.5 2.25 7.02337 2.25 10.125V16.875C2.25 19.9766 4.77338 22.5 7.875 22.5H19.125C22.2266 22.5 24.75 19.9766 24.75 16.875V10.125C24.75 7.02337 22.2266 4.5 19.125 4.5ZM7.875 6.75H19.125C20.4503 6.75 21.5876 7.52398 22.14 8.63773L15.372 13.149C14.2346 13.9072 12.7654 13.9072 11.628 13.149L4.86001 8.63773C5.41238 7.52398 6.54975 6.75 7.875 6.75ZM19.125 20.25H7.875C6.01425 20.25 4.5 18.7357 4.5 16.875V11.1015L10.3793 15.0211C11.3276 15.6533 12.4133 15.9695 13.5 15.9695C14.5856 15.9695 15.6724 15.6533 16.6196 15.0211L22.5 11.1015V16.875C22.5 18.7357 20.9858 20.25 19.125 20.25Z" fill="black"/>
</svg>
