<svg width="18" height="18" viewBox="0 0 18 18" fill="none" xmlns="http://www.w3.org/2000/svg">
<path d="M16.0271 7.92151C15.3108 11.5935 11.5466 14.1727 9.9618 15.1117C9.6648 15.2864 9.33257 15.375 9.00032 15.375C8.66807 15.375 8.33581 15.2872 8.03881 15.1117C6.45331 14.1727 2.68907 11.5943 1.97282 7.92151C1.67357 6.38626 2.08082 4.75866 3.06257 3.56616C3.96107 2.47566 5.20982 1.875 6.57932 1.875C7.44107 1.875 8.27282 2.09325 9.00032 2.508C9.72782 2.09325 10.5596 1.875 11.4213 1.875C12.7908 1.875 14.0396 2.47566 14.9381 3.56616C15.9191 4.75866 16.3263 6.38626 16.0271 7.92151Z" fill="#385CAD"/>
</svg>
