<svg width="34" height="34" viewBox="0 0 34 34" fill="none" xmlns="http://www.w3.org/2000/svg">
<path d="M28.5247 10.0867L21.4414 4.39091C18.8687 2.32174 15.133 2.32174 12.5589 4.39091L5.47559 10.0867C3.79684 11.4373 2.8335 13.4485 2.8335 15.6027V24.0947C2.8335 27.9977 6.01108 31.1724 9.91683 31.1724H14.1668V24.0933C14.1668 22.5329 15.4376 21.2659 17.0002 21.2659C18.5627 21.2659 19.8335 22.5343 19.8335 24.0933V31.1724H24.0835C27.9893 31.1724 31.1668 27.9977 31.1668 24.0947V15.6027C31.1668 13.4485 30.2035 11.4373 28.5247 10.0867ZM28.3335 24.0947C28.3335 26.4345 26.4267 28.3379 24.0835 28.3379H22.6668V24.0933C22.6668 20.9711 20.1253 18.4314 17.0002 18.4314C13.875 18.4314 11.3335 20.9711 11.3335 24.0933V28.3379H9.91683C7.57366 28.3379 5.66683 26.4345 5.66683 24.0947V15.6027C5.66683 14.3116 6.24482 13.1055 7.25066 12.2963L14.334 6.60032C15.8796 5.35882 18.1222 5.35882 19.6663 6.60032L26.7497 12.2963C27.7569 13.1055 28.3349 14.3116 28.3349 15.6027V24.0947H28.3335Z" fill="black"/>
</svg>
