<svg width="24" height="24" viewBox="0 0 24 24" fill="none" xmlns="http://www.w3.org/2000/svg">
<path d="M17.0005 3H7.00049C4.24349 3 2.00049 5.243 2.00049 8V16C2.00049 16.405 2.06148 16.7919 2.15248 17.1689C2.16648 17.2179 2.17549 17.265 2.19649 17.312C2.77749 19.43 4.69948 21 6.99948 21H16.9995C19.7565 21 21.9995 18.757 21.9995 16V8C22.0005 5.243 19.7575 3 17.0005 3ZM7.00049 5H17.0005C18.6545 5 20.0005 6.346 20.0005 8V12.5859L16.4175 9.00195C15.6365 8.22295 14.3655 8.22193 13.5845 9.00293L9.0015 13.5859L8.41849 13.002C7.63749 12.223 6.3665 12.2219 5.58549 13.0029L4.00249 14.5859V8C4.00049 6.346 5.34649 5 7.00049 5ZM17.0005 19H7.00049C5.76349 19 4.69949 18.247 4.24149 17.175L7.00349 14.417L7.94449 15.3579C8.52749 15.9389 9.4755 15.9399 10.0575 15.3569L15.0035 10.417L20.0005 15.4141V16C20.0005 17.654 18.6545 19 17.0005 19ZM6.50049 9C6.50049 8.172 7.17249 7.5 8.00049 7.5C8.82849 7.5 9.50049 8.172 9.50049 9C9.50049 9.828 8.82849 10.5 8.00049 10.5C7.17249 10.5 6.50049 9.828 6.50049 9Z" fill="#C7C7C7"/>
</svg>
