<svg width="34" height="34" viewBox="0 0 34 34" fill="none" xmlns="http://www.w3.org/2000/svg">
<path d="M18.4181 29.75C18.4181 30.5334 17.7835 31.1667 17.0015 31.1667H11.3348C7.42905 31.1667 4.25146 27.9891 4.25146 24.0833V9.91668C4.25146 6.01093 7.42905 2.83334 11.3348 2.83334H17.0015C17.7835 2.83334 18.4181 3.46659 18.4181 4.25001C18.4181 5.03343 17.7835 5.66668 17.0015 5.66668H11.3348C8.99163 5.66668 7.0848 7.57351 7.0848 9.91668V24.0833C7.0848 26.4265 8.99163 28.3333 11.3348 28.3333H17.0015C17.7835 28.3333 18.4181 28.9666 18.4181 29.75ZM29.641 17.5411C29.784 17.1955 29.784 16.8046 29.641 16.4589C29.5687 16.2847 29.4653 16.1288 29.3335 15.997L23.6683 10.3317C23.1144 9.7778 22.219 9.7778 21.6651 10.3317C21.1112 10.8856 21.1112 11.7811 21.6651 12.335L24.9135 15.5833H14.1667C13.3847 15.5833 12.75 16.2166 12.75 17C12.75 17.7834 13.3847 18.4167 14.1667 18.4167H24.9135L21.6651 21.6651C21.1112 22.219 21.1112 23.1144 21.6651 23.6683C21.9414 23.9446 22.304 24.0833 22.6667 24.0833C23.0294 24.0833 23.392 23.9446 23.6683 23.6683L29.3335 18.003C29.4653 17.8713 29.5701 17.7154 29.641 17.5411Z" fill="#F87474"/>
</svg>
