<svg width="27" height="27" viewBox="0 0 27 27" fill="none" xmlns="http://www.w3.org/2000/svg">
<path d="M12.375 14.5171V19.125C12.375 19.7471 12.879 20.25 13.5 20.25C14.121 20.25 14.625 19.7471 14.625 19.125V14.5171C17.5005 13.9861 19.6875 11.4638 19.6875 8.4375C19.6875 5.0265 16.9121 2.25 13.5 2.25C10.0879 2.25 7.3125 5.0265 7.3125 8.4375C7.3125 11.4638 9.4995 13.9861 12.375 14.5171ZM13.5 4.5C15.6713 4.5 17.4375 6.26625 17.4375 8.4375C17.4375 10.6087 15.6713 12.375 13.5 12.375C11.3288 12.375 9.5625 10.6087 9.5625 8.4375C9.5625 6.26625 11.3288 4.5 13.5 4.5ZM22.5 20.25C22.5 23.2043 17.973 24.75 13.5 24.75C9.027 24.75 4.5 23.2043 4.5 20.25C4.5 18.3353 6.51938 16.7828 9.90225 16.0988C10.512 15.9728 11.1049 16.3699 11.2275 16.9785C11.3513 17.5872 10.9575 18.1811 10.3477 18.3049C7.893 18.801 6.75 19.7595 6.75 20.25C6.75 21.0431 9.31275 22.5 13.5 22.5C17.6873 22.5 20.25 21.0431 20.25 20.25C20.25 19.7584 19.1059 18.801 16.6523 18.3049C16.0425 18.1822 15.6487 17.5872 15.7725 16.9785C15.8951 16.3688 16.4925 15.9728 17.0977 16.0988C20.4806 16.7828 22.5 18.3353 22.5 20.25Z" fill="black"/>
</svg>
