<?xml version="1.0" standalone="no"?>
<!DOCTYPE svg PUBLIC "-//W3C//DTD SVG 20010904//EN"
 "http://www.w3.org/TR/2001/REC-SVG-20010904/DTD/svg10.dtd">
<svg version="1.0" xmlns="http://www.w3.org/2000/svg"
 width="48.000000pt" height="48.000000pt" viewBox="0 0 48.000000 48.000000"
 preserveAspectRatio="xMidYMid meet">
<metadata>
Created by potrace 1.10, written by Peter Selinger 2001-2011
</metadata>
<g transform="translate(0.000000,48.000000) scale(0.100000,-0.100000)"
fill="#000000" stroke="none">
<path d="M112 395 c-40 -17 -67 -73 -58 -123 3 -19 19 -53 37 -75 41 -53 128
-127 149 -127 21 0 108 74 149 127 61 78 46 172 -31 201 -34 13 -41 13 -78 -6
-40 -19 -41 -19 -77 -1 -44 22 -48 23 -91 4z m101 -46 l26 -20 29 21 c64 47
142 1 127 -76 -5 -28 -23 -54 -75 -106 -37 -37 -73 -68 -78 -68 -19 0 -129
109 -146 144 -21 45 -20 68 5 100 26 32 75 35 112 5z"/>
</g>
</svg>
