<svg width="27" height="27" viewBox="0 0 27 27" fill="none" xmlns="http://www.w3.org/2000/svg">
<path d="M23.2886 16.5781L17.6367 22.2503C16.054 23.8388 13.852 24.75 11.5948 24.75C9.37254 24.75 7.30311 23.8996 5.7665 22.3572C2.52579 19.1037 2.57304 13.7633 5.87333 10.4524L12.312 3.99037C13.4305 2.86762 14.9165 2.25 16.4992 2.25C18.0819 2.25 19.5679 2.86762 20.6864 3.99037C22.993 6.30562 22.993 10.071 20.6864 12.3863L14.2173 18.8786C12.8875 20.2151 10.5641 20.2151 9.2343 18.8786C7.86293 17.5028 7.86293 15.2629 9.2343 13.887L14.9165 8.1844C15.3538 7.7434 16.0653 7.74332 16.5059 8.18207C16.9455 8.62082 16.9466 9.33301 16.5082 9.77289L10.8259 15.4755C10.328 15.975 10.328 16.7894 10.8259 17.2889C11.3082 17.7727 12.1434 17.7727 12.6245 17.2889L19.0936 10.7967C20.5268 9.3578 20.5268 7.01776 19.0936 5.57776C17.7076 4.18726 15.2897 4.18726 13.9037 5.57776L7.46497 12.0398C5.07855 14.4338 5.03025 18.4308 7.35821 20.7675C8.46992 21.8835 9.97504 22.4989 11.5948 22.4989C13.2585 22.4989 14.8805 21.8284 16.045 20.6606L21.6969 14.9884C22.1353 14.5474 22.8457 14.5474 23.2864 14.9862C23.7259 15.4261 23.727 16.1393 23.2886 16.5781Z" fill="black"/>
</svg>
