<?xml version="1.0" encoding="UTF-8"?>
<svg xmlns="http://www.w3.org/2000/svg" xmlns:xlink="http://www.w3.org/1999/xlink" width="34px" height="34px" viewBox="0 0 34 34" version="1.1">
<g id="surface1">
<path style=" stroke:none;fill-rule:nonzero;fill:rgb(0.392157%,0%,0.784314%);fill-opacity:1;" d="M 33.238281 26.871094 L 27.988281 21.617188 C 26.941406 20.578125 25.210938 20.609375 24.125 21.691406 L 21.480469 24.335938 C 21.316406 24.242188 21.140625 24.148438 20.960938 24.046875 C 19.289062 23.121094 17.003906 21.851562 14.597656 19.445312 C 12.183594 17.03125 10.914062 14.742188 9.984375 13.070312 C 9.886719 12.890625 9.792969 12.722656 9.699219 12.558594 L 11.476562 10.785156 L 12.347656 9.914062 C 13.433594 8.828125 13.464844 7.097656 12.417969 6.050781 L 7.167969 0.800781 C 6.125 -0.242188 4.394531 -0.210938 3.308594 0.871094 L 1.828125 2.359375 L 1.871094 2.402344 C 1.375 3.035156 0.957031 3.765625 0.648438 4.550781 C 0.367188 5.300781 0.1875 6.015625 0.105469 6.734375 C -0.585938 12.480469 2.039062 17.734375 9.167969 24.863281 C 19.023438 34.714844 26.960938 33.972656 27.304688 33.933594 C 28.050781 33.847656 28.765625 33.667969 29.492188 33.386719 C 30.273438 33.082031 31.003906 32.667969 31.636719 32.171875 L 31.667969 32.199219 L 33.167969 30.730469 C 34.25 29.648438 34.28125 27.917969 33.238281 26.871094 Z M 32 29.566406 L 31.339844 30.222656 L 31.078125 30.476562 C 30.664062 30.878906 29.945312 31.441406 28.898438 31.851562 C 28.304688 32.078125 27.71875 32.226562 27.121094 32.296875 C 27.046875 32.304688 19.578125 32.941406 10.332031 23.699219 C 2.472656 15.839844 1.214844 11.3125 1.742188 6.925781 C 1.808594 6.34375 1.953125 5.757812 2.1875 5.148438 C 2.601562 4.09375 3.164062 3.375 3.5625 2.960938 L 4.472656 2.039062 C 4.914062 1.597656 5.601562 1.5625 6.003906 1.964844 L 11.253906 7.21875 C 11.65625 7.621094 11.625 8.304688 11.183594 8.75 L 7.636719 12.292969 L 7.964844 12.84375 C 8.144531 13.148438 8.339844 13.492188 8.542969 13.867188 C 9.519531 15.625 10.855469 18.035156 13.429688 20.609375 C 16 23.179688 18.40625 24.515625 20.160156 25.488281 C 20.539062 25.695312 20.886719 25.890625 21.195312 26.074219 L 21.746094 26.402344 L 25.292969 22.855469 C 25.734375 22.417969 26.421875 22.382812 26.824219 22.785156 L 32.074219 28.035156 C 32.472656 28.4375 32.441406 29.125 32 29.566406 Z M 32 29.566406 "/>
</g>
</svg>
