<svg width="30" height="30" viewBox="0 0 30 30" fill="none" xmlns="http://www.w3.org/2000/svg">
<path d="M27.1336 25.3662L21.4599 19.6924C22.8886 17.8824 23.7499 15.6038 23.7499 13.125C23.7499 7.26625 18.9836 2.5 13.1249 2.5C7.26613 2.5 2.49988 7.26625 2.49988 13.125C2.49988 18.9838 7.26613 23.75 13.1249 23.75C15.6049 23.75 17.8824 22.89 19.6924 21.46L25.3661 27.1338C25.6099 27.3775 25.9299 27.5 26.2499 27.5C26.5699 27.5 26.8899 27.3775 27.1336 27.1338C27.6224 26.645 27.6224 25.855 27.1336 25.3662ZM4.99988 13.125C4.99988 8.645 8.64488 5 13.1249 5C17.6049 5 21.2499 8.645 21.2499 13.125C21.2499 17.605 17.6049 21.25 13.1249 21.25C8.64488 21.25 4.99988 17.605 4.99988 13.125Z" fill="#C0C0C0"/>
</svg>
