<svg width="34" height="34" viewBox="0 0 34 34" fill="none" xmlns="http://www.w3.org/2000/svg">
<path d="M29.6462 4.35272C28.6503 3.3568 27.2407 2.96589 25.8736 3.30872L7.29691 7.95249C4.82058 8.57157 3.16875 10.7023 3.18716 13.2551C3.20558 15.808 4.88575 17.9144 7.37058 18.4995L13.9524 20.0479L15.5009 26.6298C16.0859 29.1146 18.1925 30.7948 20.7453 30.8132C20.7595 30.8132 20.7722 30.8132 20.7864 30.8132C23.3208 30.8132 25.4317 29.1656 26.0479 26.7034L30.6917 8.12681C31.0331 6.75831 30.6422 5.34863 29.6462 4.35272ZM28.6291 7.60818L23.9853 26.185C23.5192 28.0436 21.9509 28.6656 20.7595 28.6868C19.5624 28.6783 18.0083 28.0068 17.5691 26.1411L16.0051 19.4968L22.0005 13.5016C22.4156 13.0865 22.4156 12.4135 22.0005 11.9984C21.5855 11.5833 20.9125 11.5833 20.4974 11.9984L14.5021 17.9938L7.85791 16.4298C5.99216 15.9907 5.32066 14.4365 5.31216 13.2394C5.30366 12.0409 5.9539 10.4783 7.81398 10.0137L26.3893 5.36991C26.5409 5.33166 26.6939 5.31319 26.844 5.31319C27.3257 5.31319 27.7904 5.50313 28.1432 5.85447C28.6064 6.31772 28.7877 6.97351 28.6291 7.60818Z" fill="white"/>
</svg>
