<svg width="27" height="27" viewBox="0 0 27 27" fill="none" xmlns="http://www.w3.org/2000/svg">
<path d="M13.5 18C12.61 18 11.74 17.7361 10.9999 17.2416C10.2599 16.7471 9.68314 16.0443 9.34254 15.2221C9.00195 14.3998 8.91283 13.495 9.08647 12.6221C9.2601 11.7492 9.68868 10.9474 10.318 10.318C10.9474 9.68868 11.7492 9.2601 12.6221 9.08647C13.495 8.91283 14.3998 9.00195 15.2221 9.34254C16.0443 9.68314 16.7471 10.2599 17.2416 10.9999C17.7361 11.74 18 12.61 18 13.5C18 14.6935 17.5259 15.8381 16.682 16.682C15.8381 17.5259 14.6935 18 13.5 18ZM13.5 11.25C13.055 11.25 12.62 11.382 12.25 11.6292C11.88 11.8764 11.5916 12.2278 11.4213 12.639C11.251 13.0501 11.2064 13.5025 11.2932 13.939C11.3801 14.3754 11.5943 14.7763 11.909 15.091C12.2237 15.4057 12.6246 15.62 13.061 15.7068C13.4975 15.7936 13.9499 15.749 14.361 15.5787C14.7722 15.4084 15.1236 15.12 15.3708 14.75C15.618 14.38 15.75 13.945 15.75 13.5C15.75 12.9033 15.5129 12.331 15.091 11.909C14.669 11.4871 14.0967 11.25 13.5 11.25ZM14.0625 24.75H12.9375C12.1916 24.75 11.4762 24.4537 10.9488 23.9262C10.4213 23.3988 10.125 22.6834 10.125 21.9375C10.1272 21.9115 10.121 21.8855 10.1072 21.8634C10.0934 21.8413 10.0728 21.8243 10.0485 21.8149C9.99338 21.7879 9.92925 21.8464 9.92925 21.8464C9.40134 22.375 8.68547 22.6729 7.9384 22.6748C7.19134 22.6767 6.47396 22.3824 5.94338 21.8565L5.14913 21.0611C4.88765 20.7994 4.68037 20.4887 4.53916 20.1468C4.39796 19.8048 4.32559 19.4384 4.32622 19.0685C4.32685 18.6985 4.40045 18.3324 4.54282 17.9909C4.68518 17.6494 4.89351 17.3394 5.15588 17.0786C5.17473 17.0615 5.18723 17.0385 5.19131 17.0134C5.1954 16.9882 5.19084 16.9625 5.17838 16.9403C5.16559 16.921 5.14843 16.905 5.12828 16.8937C5.10814 16.8824 5.0856 16.8759 5.0625 16.875C4.31658 16.875 3.60121 16.5787 3.07376 16.0512C2.54632 15.5238 2.25 14.8084 2.25 14.0625V12.9375C2.25 12.1916 2.54632 11.4762 3.07376 10.9488C3.60121 10.4213 4.31658 10.125 5.0625 10.125C5.0876 10.1264 5.11254 10.1202 5.13417 10.1074C5.1558 10.0946 5.17314 10.0757 5.184 10.053C5.1923 10.034 5.19437 10.0129 5.18993 9.99272C5.18548 9.97251 5.17474 9.95423 5.15925 9.9405C4.896 9.67934 4.68681 9.36886 4.54364 9.02679C4.40047 8.68473 4.32614 8.3178 4.32488 7.94699C4.32363 7.57617 4.39548 7.20875 4.53633 6.86573C4.67718 6.5227 4.88427 6.21081 5.14575 5.94788L5.94225 5.15025C6.47069 4.62491 7.18555 4.33003 7.93069 4.33003C8.67583 4.33003 9.39069 4.62491 9.91913 5.15025C9.93459 5.17216 9.95736 5.18783 9.98335 5.19443C10.0093 5.20103 10.0368 5.19813 10.0609 5.18625C10.125 5.1525 10.125 5.0625 10.125 5.0625C10.125 4.31658 10.4213 3.60121 10.9488 3.07376C11.4762 2.54632 12.1916 2.25 12.9375 2.25H14.0625C14.8084 2.25 15.5238 2.54632 16.0512 3.07376C16.5787 3.60121 16.875 4.31658 16.875 5.0625C16.875 5.0625 16.8694 5.175 16.9313 5.1975C16.9539 5.20461 16.9781 5.20575 17.0013 5.20083C17.0246 5.1959 17.0462 5.18507 17.064 5.16938C17.3248 4.90216 17.6364 4.68984 17.9805 4.54493C18.3246 4.40003 18.6943 4.32546 19.0676 4.32563C19.4372 4.32432 19.8033 4.39645 20.1448 4.53781C20.4862 4.67918 20.7962 4.88697 21.0566 5.14913L21.8441 5.93663C22.3714 6.46405 22.6676 7.17929 22.6676 7.92506C22.6676 8.67084 22.3714 9.38608 21.8441 9.9135C21.8284 9.93713 21.7631 9.9855 21.789 10.053C21.7919 10.0654 21.7973 10.0772 21.8047 10.0875C21.8122 10.0979 21.8216 10.1067 21.8325 10.1134C21.8434 10.1201 21.8555 10.1245 21.8681 10.1265C21.8807 10.1285 21.8936 10.128 21.906 10.125C22.2776 10.1222 22.6461 10.1928 22.9904 10.3327C23.3347 10.4727 23.6479 10.6793 23.9121 10.9406C24.1764 11.2019 24.3864 11.5128 24.5302 11.8555C24.674 12.1982 24.7487 12.5659 24.75 12.9375V14.0625C24.75 14.8084 24.4537 15.5238 23.9262 16.0512C23.3988 16.5787 22.6834 16.875 21.9375 16.875C21.87 16.875 21.8093 16.875 21.7879 16.9301C21.7665 16.9853 21.7778 17.0201 21.8329 17.0663C22.0978 17.3265 22.3086 17.6367 22.4531 17.9789C22.5975 18.3211 22.6727 18.6885 22.6744 19.0599C22.6761 19.4314 22.6042 19.7994 22.4628 20.1429C22.3215 20.4864 22.1135 20.7985 21.8509 21.0611L21.0634 21.8554C20.5349 22.3807 19.8201 22.6756 19.0749 22.6756C18.3298 22.6756 17.6149 22.3807 17.0865 21.8554C17.0865 21.8554 17.0235 21.7789 16.9605 21.8014C16.9381 21.8082 16.9183 21.8218 16.904 21.8403C16.8897 21.8589 16.8815 21.8815 16.8806 21.9049C16.8836 22.2771 16.8129 22.6462 16.6727 22.9909C16.5324 23.3357 16.3254 23.6493 16.0635 23.9137C15.8016 24.1782 15.4899 24.3882 15.1465 24.5317C14.8031 24.6752 14.4347 24.7494 14.0625 24.75ZM10.8799 19.7235L10.9294 19.7438C11.3555 19.9232 11.7196 20.2237 11.9765 20.608C12.2335 20.9924 12.372 21.4437 12.375 21.906C12.372 21.9822 12.3843 22.0582 12.4111 22.1295C12.4379 22.2009 12.4787 22.2662 12.5311 22.3215C12.5835 22.3769 12.6465 22.4212 12.7163 22.4518C12.7861 22.4825 12.8613 22.4989 12.9375 22.5H14.0625C14.2117 22.5 14.3548 22.4407 14.4602 22.3353C14.5657 22.2298 14.625 22.0867 14.625 21.9375C14.6252 21.4653 14.7653 21.0038 15.0276 20.6111C15.2899 20.2185 15.6626 19.9123 16.0988 19.7314C16.5262 19.5553 16.9961 19.5095 17.4495 19.5998C17.9029 19.6901 18.3195 19.9124 18.6469 20.2388C18.6984 20.2954 18.7608 20.3411 18.8303 20.3731C18.8999 20.4052 18.9752 20.4229 19.0517 20.4252C19.1282 20.4275 19.2044 20.4143 19.2758 20.3866C19.3471 20.3588 19.4122 20.3169 19.467 20.2635L20.2545 19.476C20.3069 19.4237 20.3484 19.3617 20.3768 19.2933C20.4052 19.225 20.4198 19.1517 20.4198 19.0778C20.4198 19.0038 20.4052 18.9305 20.3768 18.8622C20.3484 18.7938 20.3069 18.7318 20.2545 18.6795C19.9287 18.3518 19.7048 17.9368 19.61 17.4846C19.5152 17.0323 19.5534 16.5623 19.7201 16.1314C19.7269 16.1134 19.7325 16.0965 19.7404 16.0785L19.7471 16.0628C19.9245 15.636 20.2246 15.2716 20.6093 15.0156C20.9941 14.7597 21.4461 14.6237 21.9083 14.625C21.9843 14.6279 22.0601 14.6155 22.1313 14.5886C22.2024 14.5617 22.2675 14.5208 22.3226 14.4684C22.3778 14.416 22.4219 14.3531 22.4523 14.2834C22.4828 14.2137 22.499 14.1386 22.5 14.0625V12.9375C22.5 12.7883 22.4407 12.6452 22.3353 12.5398C22.2298 12.4343 22.0867 12.375 21.9375 12.375C21.4682 12.3803 21.0081 12.2447 20.6166 11.9858C20.2252 11.7269 19.9203 11.3565 19.7415 10.9226L19.7201 10.8709C19.5494 10.4464 19.5077 9.9809 19.6004 9.53282C19.693 9.08473 19.9159 8.67397 20.241 8.352C20.2972 8.30027 20.3424 8.23779 20.3741 8.16828C20.4057 8.09876 20.4231 8.0236 20.4252 7.94725C20.4273 7.8709 20.4141 7.79491 20.3863 7.72375C20.3585 7.6526 20.3168 7.58774 20.2635 7.533L19.476 6.7455C19.4237 6.6933 19.3616 6.65192 19.2932 6.62374C19.2249 6.59556 19.1517 6.58112 19.0778 6.58125C19.0038 6.58127 18.9305 6.59588 18.8622 6.62426C18.7938 6.65264 18.7317 6.69422 18.6795 6.74663C18.3469 7.07768 17.9242 7.30365 17.4642 7.39646C17.0042 7.48927 16.527 7.44482 16.092 7.26863C15.6574 7.09469 15.2851 6.79412 15.0235 6.40593C14.7619 6.01774 14.6231 5.55986 14.625 5.09175C14.6279 5.01573 14.6155 4.9399 14.5886 4.86873C14.5617 4.79757 14.5208 4.7325 14.4684 4.67736C14.416 4.62222 14.3531 4.57812 14.2834 4.54766C14.2137 4.5172 14.1386 4.501 14.0625 4.5H12.9375C12.7883 4.5 12.6452 4.55926 12.5398 4.66475C12.4343 4.77024 12.375 4.91332 12.375 5.0625C12.3784 5.52988 12.2431 5.98776 11.9862 6.37822C11.7293 6.76867 11.3624 7.07415 10.9318 7.25601C10.5012 7.43787 10.0264 7.48793 9.5674 7.39986C9.10838 7.31179 8.6858 7.08955 8.35313 6.76125C8.30176 6.70515 8.23967 6.65991 8.17052 6.6282C8.10137 6.5965 8.02657 6.57898 7.95054 6.57667C7.87451 6.57436 7.79878 6.58732 7.72784 6.61477C7.6569 6.64222 7.59218 6.68361 7.5375 6.7365L6.7365 7.5375C6.63105 7.64298 6.57181 7.78603 6.57181 7.93519C6.57181 8.08434 6.63105 8.22739 6.7365 8.33288C7.07048 8.65982 7.29938 9.07893 7.39397 9.53662C7.48855 9.99432 7.44452 10.4698 7.2675 10.9024C7.23765 10.977 7.19994 11.0483 7.155 11.115C6.95606 11.4906 6.65975 11.8057 6.29714 12.0274C5.93453 12.2491 5.51897 12.3691 5.094 12.375C5.01783 12.372 4.94183 12.3843 4.87047 12.4111C4.7991 12.4379 4.73383 12.4787 4.67848 12.5311C4.62313 12.5835 4.57882 12.6465 4.54817 12.7163C4.51752 12.7861 4.50114 12.8613 4.5 12.9375V14.0625C4.5 14.2117 4.55926 14.3548 4.66475 14.4602C4.77024 14.5657 4.91332 14.625 5.0625 14.625C5.52788 14.6197 5.9843 14.753 6.3736 15.0081C6.7629 15.2631 7.06743 15.6283 7.24838 16.0571L7.25513 16.0729C7.26525 16.0965 7.27425 16.119 7.28213 16.1438C7.44651 16.5691 7.48427 17.033 7.39085 17.4794C7.29742 17.9257 7.07681 18.3355 6.75563 18.6593C6.69951 18.7123 6.65465 18.7761 6.62373 18.8468C6.5928 18.9176 6.57644 18.9938 6.57563 19.071C6.57497 19.1452 6.58917 19.2187 6.61737 19.2873C6.64558 19.3559 6.68723 19.4181 6.73988 19.4704L7.53413 20.2646C7.63961 20.3701 7.78266 20.4293 7.93181 20.4293C8.08097 20.4293 8.22402 20.3701 8.3295 20.2646C8.65397 19.9331 9.06916 19.7049 9.52291 19.6086C9.97667 19.5124 10.4488 19.5523 10.8799 19.7235Z" fill="black"/>
</svg>
