<?xml version="1.0" standalone="no"?>
<!DOCTYPE svg PUBLIC "-//W3C//DTD SVG 20010904//EN"
 "http://www.w3.org/TR/2001/REC-SVG-20010904/DTD/svg10.dtd">
<svg version="1.0" xmlns="http://www.w3.org/2000/svg"
 width="512.000000pt" height="512.000000pt" viewBox="0 0 512.000000 512.000000"
 preserveAspectRatio="xMidYMid meet">

<g transform="translate(0.000000,512.000000) scale(0.100000,-0.100000)"
fill="#000000" stroke="none">
<path d="M0 4910 l0 -120 289 0 289 0 9 -37 c124 -479 667 -2491 887 -3285
l93 -338 -46 -29 c-99 -64 -184 -180 -221 -300 -14 -44 -20 -92 -20 -158 0
-194 88 -355 255 -465 200 -131 488 -104 664 62 112 108 171 240 174 390 1
103 -14 173 -59 263 l-33 67 695 0 c383 0 694 -3 692 -8 -1 -4 -15 -32 -30
-62 -107 -216 -65 -467 106 -635 112 -111 225 -158 381 -158 214 -1 398 111
493 300 109 220 68 465 -109 642 -73 74 -191 135 -289 150 -42 7 -474 11
-1241 11 l-1177 0 -16 62 c-8 35 -26 101 -39 148 l-24 85 1221 -3 c886 -2
1237 0 1281 8 127 25 263 124 323 238 22 42 103 325 301 1065 149 555 271
1018 271 1030 0 36 -38 87 -75 103 -29 12 -314 14 -2014 14 l-1979 0 -22 83
c-169 627 -252 923 -265 944 -33 50 -57 53 -425 53 l-340 0 0 -120z m4835
-1227 c-3 -16 -114 -433 -246 -928 -265 -996 -251 -956 -349 -1007 l-52 -28
-1202 0 c-1145 0 -1203 1 -1241 19 -44 20 -83 54 -108 92 -9 13 -102 335 -206
714 -176 643 -305 1106 -317 1148 -5 16 88 17 1861 17 l1867 0 -7 -27z m-2871
-2757 c63 -31 119 -89 150 -155 32 -71 30 -199 -6 -266 -55 -104 -148 -165
-264 -173 -94 -6 -158 15 -224 75 -225 202 -77 567 222 550 46 -3 84 -13 122
-31z m2304 0 c111 -56 174 -157 175 -281 0 -64 -4 -83 -32 -139 -59 -121 -164
-181 -301 -174 -126 7 -214 68 -269 188 -67 145 -3 328 142 401 66 34 87 39
163 35 51 -3 86 -12 122 -30z"/>
</g>
</svg>
