<svg width="24" height="24" viewBox="0 0 24 24" fill="none" xmlns="http://www.w3.org/2000/svg">
<path d="M11 15.0008V18.0008C11 18.5538 10.552 19.0008 10 19.0008C9.448 19.0008 9 18.5538 9 18.0008V15.0008C9 14.4478 9.448 14.0008 10 14.0008C10.552 14.0008 11 14.4478 11 15.0008ZM14 14.0008C13.448 14.0008 13 14.4478 13 15.0008V18.0008C13 18.5538 13.448 19.0008 14 19.0008C14.552 19.0008 15 18.5538 15 18.0008V15.0008C15 14.4478 14.552 14.0008 14 14.0008ZM20.429 12.6218L19.678 18.5068C19.424 20.4978 17.718 21.9999 15.71 21.9999H8.31201C6.31101 21.9999 4.60601 20.5039 4.34601 18.5199L3.573 12.6228C2.641 12.1128 2 11.1358 2 10.0008C2 8.34684 3.346 7.00084 5 7.00084H6.43399L9.14301 2.48582C9.42701 2.01182 10.04 1.85881 10.515 2.14281C10.989 2.42681 11.142 3.04088 10.858 3.51488L8.767 6.99986H15.235L13.144 3.51488C12.86 3.04088 13.013 2.42681 13.487 2.14281C13.961 1.85881 14.575 2.01182 14.859 2.48582L17.568 7.00084H19C20.654 7.00084 22 8.34684 22 10.0008C22 11.1348 21.36 12.1118 20.429 12.6218ZM4 10.0008C4 10.5528 4.449 11.0008 5 11.0008H19C19.551 11.0008 20 10.5528 20 10.0008C20 9.44884 19.551 9.00084 19 9.00084H5C4.449 9.00084 4 9.44884 4 10.0008ZM18.364 13.0008H5.64001L6.32999 18.2608C6.45899 19.2528 7.31201 20.0008 8.31201 20.0008H15.71C16.714 20.0008 17.567 19.2499 17.693 18.2549L18.364 13.0008Z" fill="#BDBDBD"/>
</svg>
