<svg width="16" height="14" viewBox="0 0 16 14" fill="none" xmlns="http://www.w3.org/2000/svg">
<path d="M14.7008 6.7229L12.3653 8.96704L12.9166 12.1328C13.0066 12.6495 12.7981 13.1647 12.3721 13.4767C11.9378 13.794 11.3708 13.8376 10.8923 13.5908L8.00033 12.093L5.10833 13.5908C4.90283 13.6973 4.68009 13.7498 4.45884 13.7498C4.16634 13.7498 3.87607 13.6575 3.62857 13.4767C3.20332 13.1647 2.99408 12.6495 3.08408 12.1328L3.63532 8.96704L1.29983 6.7229C0.917332 6.3554 0.780067 5.81476 0.942067 5.31226C1.10557 4.80376 1.53906 4.44155 2.07306 4.36505L5.30483 3.90216L6.74933 1.01843C6.98633 0.544433 7.46633 0.250488 8.00033 0.250488C8.53433 0.250488 9.01433 0.545183 9.25132 1.01843L10.6958 3.90216L13.9276 4.36505C14.4608 4.44155 14.8943 4.80376 15.0578 5.31226C15.2198 5.81476 15.0833 6.3554 14.7008 6.7229Z" fill="#F0D683"/>
</svg>
