<?xml version="1.0" encoding="UTF-8"?>
<svg xmlns="http://www.w3.org/2000/svg" xmlns:xlink="http://www.w3.org/1999/xlink" width="27px" height="27px" viewBox="0 0 27 27" version="1.1">
<g id="surface1">
<path style=" stroke:none;fill-rule:nonzero;fill:rgb(0%,0%,0%);fill-opacity:1;" d="M 10.546875 0.316406 C 8.183594 0.84375 5.820312 2.171875 3.988281 3.988281 C -0.589844 8.5625 -1.285156 15.671875 2.300781 20.96875 C 2.699219 21.578125 2.847656 21.980469 2.722656 22.167969 C 2.617188 22.339844 2.53125 22.78125 2.53125 23.140625 C 2.53125 24.152344 3.460938 25.101562 4.578125 25.25 C 5.398438 25.355469 5.546875 25.292969 6.222656 24.617188 C 7.257812 23.582031 7.257812 22.613281 6.222656 21.578125 C 5.570312 20.925781 5.398438 20.863281 4.492188 20.925781 L 3.5 20.988281 L 2.828125 19.871094 C -0.0625 15.039062 0.71875 8.734375 4.726562 4.726562 C 7.296875 2.152344 10.671875 0.886719 14.386719 1.117188 C 16.539062 1.246094 17 1.097656 16.390625 0.484375 C 15.925781 0 12.359375 -0.0859375 10.546875 0.316406 Z M 5.527344 22.296875 C 6.242188 22.949219 5.757812 24.257812 4.789062 24.257812 C 4.21875 24.257812 3.585938 23.667969 3.585938 23.140625 C 3.585938 22.128906 4.765625 21.601562 5.527344 22.296875 Z M 5.527344 22.296875 "/>
<path style=" stroke:none;fill-rule:nonzero;fill:rgb(0%,0%,0%);fill-opacity:1;" d="M 17.929688 1.476562 C 17.929688 1.75 18.078125 1.898438 18.351562 1.898438 C 18.625 1.898438 18.773438 1.75 18.773438 1.476562 C 18.773438 1.203125 18.625 1.054688 18.351562 1.054688 C 18.078125 1.054688 17.929688 1.203125 17.929688 1.476562 Z M 17.929688 1.476562 "/>
<path style=" stroke:none;fill-rule:nonzero;fill:rgb(0%,0%,0%);fill-opacity:1;" d="M 20.757812 2.40625 C 19.742188 3.417969 19.765625 4.410156 20.777344 5.421875 C 21.429688 6.074219 21.601562 6.136719 22.507812 6.074219 L 23.5 6.011719 L 24.171875 7.152344 C 25.355469 9.113281 25.839844 10.96875 25.839844 13.5 C 25.839844 16.367188 25.292969 18.160156 23.773438 20.398438 C 21.179688 24.214844 17.105469 26.175781 12.550781 25.859375 C 10.949219 25.753906 10.566406 25.777344 10.484375 26.03125 C 10.273438 26.578125 10.949219 26.832031 12.824219 26.9375 C 19.363281 27.296875 25.355469 22.71875 26.683594 16.347656 C 27.421875 12.824219 26.683594 8.945312 24.699219 6.03125 C 24.300781 5.421875 24.152344 5.019531 24.277344 4.832031 C 25.015625 3.671875 23.75 1.6875 22.253906 1.6875 C 21.640625 1.6875 21.304688 1.855469 20.757812 2.40625 Z M 23.035156 3.101562 C 23.75 3.753906 23.265625 5.0625 22.296875 5.0625 C 21.726562 5.0625 21.09375 4.472656 21.09375 3.945312 C 21.09375 2.933594 22.273438 2.40625 23.035156 3.101562 Z M 23.035156 3.101562 "/>
<path style=" stroke:none;fill-rule:nonzero;fill:rgb(0%,0%,0%);fill-opacity:1;" d="M 11.390625 4.683594 C 11.390625 5.316406 11.285156 5.421875 10.335938 5.84375 C 9.324219 6.285156 9.300781 6.285156 8.945312 5.886719 C 8.375 5.253906 8.015625 5.398438 6.707031 6.6875 C 5.398438 7.972656 5.253906 8.375 5.886719 8.945312 C 6.285156 9.300781 6.285156 9.324219 5.84375 10.335938 C 5.421875 11.265625 5.292969 11.390625 4.726562 11.390625 C 4.132812 11.390625 4.050781 11.476562 3.921875 12.171875 C 3.777344 13.183594 3.777344 14.511719 3.921875 15.125 C 4.027344 15.503906 4.21875 15.609375 4.726562 15.609375 C 5.316406 15.609375 5.421875 15.734375 5.84375 16.664062 C 6.285156 17.675781 6.285156 17.699219 5.886719 18.054688 C 5.253906 18.625 5.398438 18.984375 6.6875 20.292969 C 7.972656 21.601562 8.375 21.746094 8.945312 21.113281 C 9.300781 20.734375 9.324219 20.734375 10.355469 21.15625 C 11.285156 21.558594 11.390625 21.664062 11.390625 22.273438 C 11.390625 23.097656 11.621094 23.203125 13.5 23.203125 C 15.378906 23.203125 15.609375 23.097656 15.609375 22.273438 C 15.609375 21.664062 15.714844 21.558594 16.644531 21.15625 C 17.675781 20.734375 17.699219 20.734375 18.054688 21.113281 C 18.625 21.746094 19.027344 21.601562 20.3125 20.292969 C 21.601562 18.984375 21.746094 18.625 21.113281 18.054688 C 20.714844 17.699219 20.714844 17.675781 21.15625 16.664062 C 21.578125 15.734375 21.683594 15.609375 22.273438 15.609375 C 23.078125 15.609375 23.203125 15.292969 23.203125 13.351562 C 23.203125 11.644531 23.097656 11.390625 22.273438 11.390625 C 21.683594 11.390625 21.578125 11.265625 21.15625 10.335938 C 20.714844 9.324219 20.714844 9.300781 21.113281 8.945312 C 21.746094 8.375 21.601562 7.972656 20.292969 6.6875 C 18.984375 5.398438 18.625 5.253906 18.054688 5.886719 C 17.699219 6.285156 17.675781 6.285156 16.664062 5.84375 C 15.714844 5.421875 15.609375 5.316406 15.609375 4.683594 L 15.609375 4.007812 L 11.390625 4.007812 Z M 14.597656 5.632812 C 14.640625 6.097656 14.851562 6.265625 15.609375 6.558594 C 16.136719 6.75 16.855469 7.046875 17.234375 7.191406 C 17.824219 7.445312 17.949219 7.425781 18.351562 7.066406 C 18.792969 6.664062 18.792969 6.6875 19.554688 7.445312 C 20.3125 8.207031 20.335938 8.207031 19.933594 8.648438 C 19.574219 9.050781 19.554688 9.175781 19.808594 9.765625 C 19.953125 10.144531 20.25 10.863281 20.441406 11.390625 C 20.757812 12.214844 20.882812 12.339844 21.472656 12.402344 C 22.128906 12.464844 22.148438 12.488281 22.148438 13.5 C 22.148438 14.511719 22.128906 14.535156 21.472656 14.597656 C 20.882812 14.660156 20.757812 14.785156 20.441406 15.609375 C 20.25 16.136719 19.953125 16.855469 19.808594 17.234375 C 19.554688 17.824219 19.574219 17.949219 19.933594 18.351562 C 20.335938 18.792969 20.3125 18.792969 19.554688 19.554688 C 18.792969 20.3125 18.792969 20.335938 18.351562 19.933594 C 17.949219 19.574219 17.824219 19.554688 17.234375 19.808594 C 16.855469 19.953125 16.136719 20.25 15.609375 20.441406 C 14.785156 20.757812 14.660156 20.882812 14.597656 21.472656 C 14.535156 22.128906 14.511719 22.148438 13.5 22.148438 C 12.488281 22.148438 12.464844 22.128906 12.402344 21.472656 C 12.339844 20.882812 12.214844 20.757812 11.390625 20.441406 C 10.863281 20.25 10.144531 19.953125 9.765625 19.808594 C 9.175781 19.554688 9.050781 19.574219 8.648438 19.933594 C 8.207031 20.335938 8.207031 20.3125 7.445312 19.554688 C 6.6875 18.792969 6.664062 18.792969 7.066406 18.351562 C 7.425781 17.949219 7.445312 17.824219 7.191406 17.234375 C 7.046875 16.855469 6.75 16.136719 6.558594 15.609375 C 6.242188 14.785156 6.117188 14.660156 5.527344 14.597656 C 4.808594 14.535156 4.746094 14.34375 4.976562 13.121094 C 5.082031 12.613281 5.230469 12.445312 5.652344 12.402344 C 6.097656 12.359375 6.285156 12.148438 6.558594 11.390625 C 6.75 10.863281 7.046875 10.144531 7.191406 9.765625 C 7.445312 9.175781 7.425781 9.050781 7.066406 8.648438 C 6.664062 8.207031 6.6875 8.207031 7.445312 7.445312 C 8.207031 6.6875 8.207031 6.664062 8.648438 7.066406 C 9.050781 7.425781 9.175781 7.445312 9.765625 7.191406 C 10.144531 7.046875 10.863281 6.75 11.390625 6.558594 C 12.148438 6.265625 12.359375 6.097656 12.402344 5.632812 C 12.464844 5.105469 12.550781 5.0625 13.5 5.0625 C 14.449219 5.0625 14.535156 5.105469 14.597656 5.632812 Z M 14.597656 5.632812 "/>
<path style=" stroke:none;fill-rule:nonzero;fill:rgb(0%,0%,0%);fill-opacity:1;" d="M 12.53125 9.261719 C 8.753906 10.1875 7.972656 15.273438 11.304688 17.210938 C 15.125 19.449219 19.449219 15.125 17.210938 11.304688 C 16.304688 9.746094 14.238281 8.839844 12.53125 9.261719 Z M 14.386719 10.335938 C 16.769531 11.011719 17.550781 14.046875 15.800781 15.800781 C 13.480469 18.140625 9.472656 15.839844 10.335938 12.675781 C 10.609375 11.664062 11.582031 10.632812 12.507812 10.355469 C 13.414062 10.105469 13.480469 10.105469 14.386719 10.335938 Z M 14.386719 10.335938 "/>
<path style=" stroke:none;fill-rule:nonzero;fill:rgb(0%,0%,0%);fill-opacity:1;" d="M 8.226562 25.503906 C 8.226562 25.964844 8.710938 26.21875 9.027344 25.902344 C 9.34375 25.585938 9.089844 25.101562 8.628906 25.101562 C 8.375 25.101562 8.226562 25.25 8.226562 25.503906 Z M 8.226562 25.503906 "/>
</g>
</svg>
