<svg width="17" height="17" viewBox="0 0 17 17" fill="none" xmlns="http://www.w3.org/2000/svg">
<path d="M14.8748 3.54167H12.3539C12.0486 3.54167 11.7787 3.3476 11.6817 3.05789L11.4579 2.38492C11.2645 1.80621 10.724 1.41667 10.1141 1.41667H6.88482C6.27423 1.41667 5.73379 1.80628 5.54113 2.3857L5.31731 3.0572C5.22098 3.34691 4.95037 3.54167 4.64508 3.54167H2.12484C1.73384 3.54167 1.4165 3.8583 1.4165 4.25C1.4165 4.64171 1.73384 4.95834 2.12484 4.95834H2.87921L3.41116 12.9384C3.50961 14.4217 4.75134 15.5833 6.23813 15.5833H10.7622C12.249 15.5833 13.4908 14.421 13.5892 12.9384L14.1212 4.95834H14.8748C15.2658 4.95834 15.5832 4.64171 15.5832 4.25C15.5832 3.8583 15.2658 3.54167 14.8748 3.54167ZM6.88555 2.83334L10.1149 2.83265L10.3387 3.50553C10.3429 3.51828 10.3493 3.52892 10.3542 3.54167H6.64682C6.65107 3.52892 6.65817 3.51759 6.66242 3.50484L6.88555 2.83334ZM12.1754 12.8443C12.1258 13.5859 11.5053 14.1667 10.7615 14.1667H6.23744C5.4944 14.1667 4.87317 13.5859 4.82359 12.8443L4.29869 4.95834H4.64581C4.7216 4.95834 4.79595 4.9484 4.87032 4.94061C4.90078 4.94486 4.92699 4.95834 4.95886 4.95834H12.0422C12.0734 4.95834 12.1003 4.94415 12.1307 4.94061C12.2051 4.9484 12.2788 4.95834 12.3553 4.95834H12.7024L12.1754 12.8443ZM10.6248 7.79167V11.3333C10.6248 11.725 10.3075 12.0417 9.9165 12.0417C9.5255 12.0417 9.20817 11.725 9.20817 11.3333V7.79167C9.20817 7.39996 9.5255 7.08334 9.9165 7.08334C10.3075 7.08334 10.6248 7.39996 10.6248 7.79167ZM7.7915 7.79167V11.3333C7.7915 11.725 7.47417 12.0417 7.08317 12.0417C6.69217 12.0417 6.37484 11.725 6.37484 11.3333V7.79167C6.37484 7.39996 6.69217 7.08334 7.08317 7.08334C7.47417 7.08334 7.7915 7.39996 7.7915 7.79167Z" fill="black"/>
</svg>
