<svg width="27" height="27" viewBox="0 0 27 27" fill="none" xmlns="http://www.w3.org/2000/svg">
<path d="M9.32966 8.6706C8.88978 8.23073 8.88978 7.51966 9.32966 7.07978L12.7047 3.70478C13.1445 3.26491 13.8555 3.26491 14.2953 3.70478L17.6703 7.07978C18.1102 7.51966 18.1102 8.23073 17.6703 8.6706C17.451 8.88998 17.163 9.00019 16.875 9.00019C16.587 9.00019 16.299 8.88998 16.0797 8.6706L14.625 7.21588V12.3752C14.625 12.9973 14.121 13.5002 13.5 13.5002C12.879 13.5002 12.375 12.9973 12.375 12.3752V7.21588L10.9203 8.6706C10.4805 9.11048 9.76953 9.11048 9.32966 8.6706ZM19.125 11.2502C18.504 11.2502 18 11.7531 18 12.3752C18 12.9973 18.504 13.5002 19.125 13.5002C20.9858 13.5002 22.5 15.0144 22.5 16.8752V18.0002C22.5 19.8609 20.9858 21.3752 19.125 21.3752H7.875C6.01425 21.3752 4.5 19.8609 4.5 18.0002V16.8752C4.5 15.0144 6.01425 13.5002 7.875 13.5002C8.496 13.5002 9 12.9973 9 12.3752C9 11.7531 8.496 11.2502 7.875 11.2502C4.77338 11.2502 2.25 13.7736 2.25 16.8752V18.0002C2.25 21.1018 4.77338 23.6252 7.875 23.6252H19.125C22.2266 23.6252 24.75 21.1018 24.75 18.0002V16.8752C24.75 13.7736 22.2266 11.2502 19.125 11.2502ZM20.25 16.8752C20.25 16.2542 19.746 15.7502 19.125 15.7502C18.504 15.7502 18 16.2542 18 16.8752C18 17.4962 18.504 18.0002 19.125 18.0002C19.746 18.0002 20.25 17.4962 20.25 16.8752Z" fill="black"/>
</svg>
