<svg width="30" height="30" viewBox="0 0 30 30" fill="none" xmlns="http://www.w3.org/2000/svg">
<path d="M15 16.25C18.7912 16.25 21.875 13.165 21.875 9.375C21.875 5.585 18.7912 2.5 15 2.5C11.2087 2.5 8.125 5.585 8.125 9.375C8.125 13.165 11.2087 16.25 15 16.25ZM15 5C17.4125 5 19.375 6.9625 19.375 9.375C19.375 11.7875 17.4125 13.75 15 13.75C12.5875 13.75 10.625 11.7875 10.625 9.375C10.625 6.9625 12.5875 5 15 5ZM25 22.4588V23.7225C25 24.9675 24.545 26.1612 23.7187 27.0837C23.4712 27.36 23.13 27.5 22.7863 27.5C22.49 27.5 22.1913 27.395 21.9525 27.1812C21.4375 26.7212 21.395 25.93 21.855 25.4163C22.27 24.9525 22.4988 24.35 22.4988 23.7225V22.4588C22.4988 20.7101 21.34 19.1975 19.6825 18.7813C19.4425 18.7213 19.1862 18.7512 18.9812 18.8687C16.505 20.2462 13.4825 20.2387 11.03 18.8762C10.8137 18.7524 10.5588 18.7213 10.3188 18.7813C8.65751 19.1975 7.5 20.7101 7.5 22.4588V23.7225C7.5 24.3513 7.72877 24.9525 8.14377 25.4163C8.60377 25.93 8.56001 26.7212 8.04626 27.1812C7.53126 27.6425 6.74128 27.5975 6.28128 27.0837C5.45503 26.1612 5 24.9675 5 23.7225V22.4588C5 19.5626 6.93629 17.0525 9.70879 16.3562C10.5675 16.1375 11.4975 16.2638 12.2575 16.6975C13.9438 17.6325 16.045 17.6401 17.755 16.6901C18.5037 16.2613 19.4337 16.1362 20.2937 16.355C23.0637 17.0525 25 19.5613 25 22.4588Z" fill="#C0C0C0"/>
</svg>
